PathFileType	4	(X/Y/Z)	../output/dynamic_cam2_scaled.trc
DataRate	CameraRate	NumFrames	NumMarkers	Units	OrigDataRate	OrigDataStartFrame	OrigNumFrames
60.0	60.0	71	3	m	60.0	1	784
Frame#	Time	r_acromion			r_humerus_epicondyle			r_radius_styloid		
		X1	Y1	Z1	X2	Y2	Z2	X3	Y3	Z3	

1	0.00000	0.00000	0.83700	0.17000	0.21104	0.82641	0.03640	0.50483	0.94570	0.02751
2	0.01667	-0.00136	0.83771	0.16619	0.21158	0.82718	0.03563	0.50603	0.94336	0.05620
3	0.03333	-0.00143	0.83820	0.16634	0.21146	0.82880	0.03561	0.50624	0.94165	0.06708
4	0.05000	-0.00236	0.83866	0.16153	0.20664	0.82938	0.02466	0.50388	0.93989	0.03180
5	0.06667	-0.00289	0.83894	0.15633	0.20705	0.82919	0.02094	0.50417	0.93921	0.03636
6	0.08333	-0.00323	0.83934	0.15164	0.20655	0.82885	0.01606	0.50354	0.93895	0.03331
7	0.10000	-0.00326	0.83956	0.15350	0.20706	0.82863	0.01880	0.50396	0.93959	0.03147
8	0.11667	-0.00323	0.83973	0.15496	0.20618	0.82848	0.01886	0.50298	0.94037	0.02216
9	0.13333	-0.00322	0.83979	0.15514	0.20630	0.82837	0.01923	0.50280	0.94093	0.02582
10	0.15000	-0.00321	0.83981	0.15839	0.20943	0.82808	0.02746	0.50572	0.94132	0.03076
11	0.16667	-0.00321	0.83985	0.16117	0.21191	0.82758	0.03438	0.50780	0.94155	0.04344
12	0.18333	-0.00320	0.83993	0.16372	0.21254	0.82700	0.03806	0.50797	0.94173	0.05143
13	0.20000	-0.00321	0.83998	0.16691	0.21416	0.82662	0.04415	0.50938	0.94164	0.05960
14	0.21667	-0.00292	0.84007	0.17002	0.21538	0.82609	0.04898	0.50983	0.94157	0.07317
15	0.23333	-0.00291	0.84011	0.17266	0.21366	0.82586	0.04860	0.50855	0.94194	0.06218
16	0.25000	-0.00291	0.84019	0.17228	0.21257	0.82542	0.04638	0.50712	0.94188	0.06369
17	0.26667	-0.00272	0.84020	0.17258	0.21297	0.82516	0.04708	0.50770	0.94209	0.05614
18	0.28333	-0.00315	0.84021	0.17212	0.21306	0.82479	0.04756	0.50719	0.94190	0.02770
19	0.30000	-0.00339	0.84021	0.17185	0.21243	0.82469	0.04663	0.50625	0.94179	0.02253
20	0.31667	-0.00334	0.84017	0.17368	0.21271	0.82447	0.04888	0.50746	0.94021	0.03034
21	0.33333	-0.00346	0.84017	0.17430	0.21129	0.82432	0.04729	0.50666	0.93833	0.02780
22	0.35000	-0.00346	0.84018	0.17409	0.21110	0.82401	0.04681	0.50691	0.93667	0.02613
23	0.36667	-0.00355	0.84017	0.17386	0.21063	0.82369	0.04596	0.50679	0.93532	0.02473
24	0.38333	-0.00379	0.84017	0.17352	0.20940	0.82348	0.04400	0.50579	0.93434	0.02204
25	0.40000	-0.00405	0.84016	0.17230	0.20795	0.82327	0.04090	0.50475	0.93352	0.02153
26	0.41667	-0.00433	0.84015	0.17214	0.20769	0.82327	0.04075	0.50523	0.93181	0.02320
27	0.43333	-0.00454	0.84012	0.17192	0.20751	0.82300	0.04061	0.50595	0.92931	0.02460
28	0.45000	-0.00460	0.84007	0.17162	0.20786	0.82293	0.04098	0.50699	0.92844	0.03782
29	0.46667	-0.00443	0.84002	0.17175	0.21055	0.82226	0.04539	0.50902	0.92759	0.06642
30	0.48333	-0.00435	0.83998	0.17155	0.21096	0.82166	0.04582	0.50933	0.92698	0.06829
31	0.50000	-0.00423	0.83991	0.17124	0.21129	0.82118	0.04594	0.50965	0.92686	0.06684
32	0.51667	-0.00422	0.83986	0.17064	0.21129	0.82080	0.04537	0.50976	0.92611	0.06655
33	0.53333	-0.00423	0.83971	0.17006	0.21133	0.82068	0.04486	0.51028	0.92438	0.06709
34	0.55000	-0.00422	0.83953	0.16956	0.21183	0.82069	0.04520	0.51119	0.92258	0.07026
35	0.56667	-0.00423	0.83938	0.16825	0.21103	0.82080	0.04248	0.51069	0.92115	0.07001
36	0.58333	-0.00424	0.83925	0.16710	0.21057	0.82086	0.04052	0.51051	0.92054	0.06734
37	0.60000	-0.00424	0.83916	0.16513	0.20930	0.82088	0.03641	0.50968	0.92059	0.05763
38	0.61667	-0.00413	0.83903	0.16417	0.20917	0.82080	0.03505	0.50952	0.92097	0.05450
39	0.63333	-0.00414	0.83897	0.16315	0.20907	0.82069	0.03389	0.50964	0.92170	0.04255
40	0.65000	-0.00416	0.83885	0.16259	0.20873	0.82049	0.03282	0.50913	0.92233	0.03528
41	0.66667	-0.00420	0.83877	0.16175	0.20801	0.82024	0.03088	0.50811	0.92290	0.02640
42	0.68333	-0.00422	0.83869	0.16115	0.20790	0.82003	0.03016	0.50776	0.92331	0.02398
43	0.70000	-0.00425	0.83864	0.16075	0.20811	0.81980	0.03018	0.50775	0.92368	0.02320
44	0.71667	-0.00429	0.83855	0.15945	0.20782	0.81969	0.02847	0.50715	0.92402	0.01685
45	0.73333	-0.00434	0.83848	0.15846	0.20766	0.81947	0.02732	0.50666	0.92437	0.01273
46	0.75000	-0.00443	0.83842	0.15800	0.20753	0.81935	0.02681	0.50636	0.92460	0.01120
47	0.76667	-0.00448	0.83838	0.15820	0.20765	0.81903	0.02734	0.50637	0.92489	0.01388
48	0.78333	-0.00454	0.83836	0.15791	0.20750	0.81873	0.02693	0.50598	0.92503	0.01181
49	0.80000	-0.00454	0.83835	0.15788	0.20755	0.81839	0.02704	0.50590	0.92517	0.01264
50	0.81667	-0.00452	0.83833	0.15708	0.20812	0.81807	0.02718	0.50696	0.92378	0.01533
51	0.83333	-0.00452	0.83832	0.15538	0.20849	0.81778	0.02614	0.50766	0.92292	0.01805
52	0.85000	-0.00452	0.83831	0.15425	0.20888	0.81752	0.02570	0.50826	0.92215	0.01852
53	0.86667	-0.00453	0.83830	0.15227	0.20931	0.81719	0.02449	0.50898	0.92073	0.01470
54	0.88333	-0.00449	0.83829	0.15182	0.20960	0.81687	0.02450	0.50957	0.91973	0.01683
55	0.90000	-0.00443	0.83828	0.15197	0.20943	0.81665	0.02431	0.50954	0.91917	0.01756
56	0.91667	-0.00430	0.83822	0.15167	0.20998	0.81619	0.02480	0.50999	0.91906	0.01871
57	0.93333	-0.00385	0.83827	0.15375	0.21286	0.81527	0.03123	0.51280	0.91697	0.04889
58	0.95000	-0.00285	0.83843	0.15722	0.21320	0.81376	0.03387	0.51298	0.91414	0.05987
59	0.96667	-0.00225	0.83849	0.15741	0.21332	0.81281	0.03342	0.51351	0.91230	0.05806
60	0.98333	-0.00169	0.83852	0.15768	0.21383	0.81203	0.03380	0.51378	0.91092	0.06338
61	1.00000	-0.00148	0.83851	0.15681	0.21394	0.81140	0.03289	0.51399	0.91003	0.06225
62	1.01667	-0.00141	0.83847	0.15466	0.21420	0.81086	0.03115	0.51515	0.90847	0.05402
63	1.03333	-0.00126	0.83845	0.15446	0.21447	0.81043	0.03127	0.51571	0.90746	0.05285
64	1.05000	-0.00126	0.83830	0.15385	0.21398	0.81025	0.02981	0.51573	0.90767	0.03879
65	1.06667	-0.00123	0.83819	0.15387	0.21404	0.81002	0.02993	0.51564	0.90801	0.03769
66	1.08333	-0.00117	0.83810	0.15415	0.21417	0.80983	0.03034	0.51564	0.90823	0.03768
67	1.10000	-0.00118	0.83805	0.15396	0.21410	0.80946	0.03011	0.51553	0.90816	0.03460
68	1.11667	-0.00118	0.83800	0.15288	0.21348	0.80922	0.02802	0.51484	0.90821	0.02611
69	1.13333	-0.00118	0.83798	0.15278	0.21345	0.80878	0.02797	0.51466	0.90825	0.02733
70	1.15000	-0.00114	0.83797	0.15297	0.21390	0.80852	0.02891	0.51501	0.90802	0.03607
71	1.16667	-0.00111	0.83796	0.15299	0.21417	0.80834	0.02940	0.51512	0.90771	0.04285
